<?xml version="1.0" encoding="utf-8"?>
<!-- Svg Vector Icons : http://www.onlinewebfonts.com/icon -->
<!DOCTYPE svg PUBLIC "-//W3C//DTD SVG 1.1//EN" "http://www.w3.org/Graphics/SVG/1.1/DTD/svg11.dtd">
<svg version="1.1" xmlns="http://www.w3.org/2000/svg" xmlns:xlink="http://www.w3.org/1999/xlink" x="0px" y="0px" viewBox="0 0 1000 1000" enable-background="new 0 0 1000 1000" xml:space="preserve">
<metadata> Svg Vector Icons : http://www.onlinewebfonts.com/icon </metadata>
<g><g transform="translate(0.000000,511.000000) scale(0.100000,-0.100000)"><path d="M4466.9,4996.4C2393.6,4785.9,743.4,3212.3,437.2,1160.2c-48.9-323.2-48.9-903.8,0-1233.4c95.7-667.8,338.1-1305.7,701.8-1848c406.2-610.3,967.6-1122.8,1599.2-1465.2c663.5-359.4,1271.7-521,2028.7-540.2c363.6-10.6,835.7,17,867.6,48.9c4.2,4.3-17,91.5-46.8,193.5c-74.4,246.7-99.9,416.8-99.9,678.4c0,754.9,357.2,1435.4,988.8,1886.2c155.2,110.6,480.6,259.4,701.7,323.2c578.4,165.9,1314.2,65.9,1809.7-240.3c57.4-36.2,110.6-59.6,117-51.1c27.7,27.6,125.5,325.4,178.6,538c210.5,829.4,172.2,1724.6-110.6,2537c-548.6,1582.1-1935.2,2728.3-3600.2,2979.3C5292,5007.1,4730.6,5024.1,4466.9,4996.4z M5104.9,3012.4v-327.5l155.2-14.9c291.3-29.8,737.9-178.6,737.9-246.7c0-14.9-36.2-119.1-78.7-231.8l-78.7-206.3l-148.9,70.2c-253,114.8-395.5,144.6-703.9,146.7c-244.6,0-289.2-6.4-380.6-48.9c-236-108.5-348.8-253.1-367.9-472.1c-31.9-342.4,157.4-544.4,742.2-793.2c493.4-210.5,706-340.2,893.1-544.4c142.5-151,219-299.8,261.6-501.9c136.1-646.5-253.1-1235.5-929.3-1405.6l-144.6-34v-359.4v-359.4h-212.7h-212.7v350.9v350.9h-72.3c-112.7,0-435.9,59.6-586.9,110.6c-155.2,51-372.1,153.1-393.4,187.1c-8.5,12.8,21.3,121.2,65.9,242.4l78.7,221.2l193.5-93.6c672-323.2,1337.6-236,1580,206.3c59.5,110.6,55.3,446.6-8.5,561.4c-117,216.9-359.4,387-808.1,565.7c-569.9,225.4-903.8,508.2-1008,852.7c-38.3,123.3-44.7,185-36.1,370c8.5,206.3,14.9,231.8,97.8,399.8c151,302,423.2,514.6,784.7,608.2L4669,2653l6.4,344.5l4.3,342.4h212.7h212.6V3012.4z"/><path d="M7518.5-1232.2c-691.1-108.5-1284.4-637.9-1469.4-1307.8c-53.2-195.6-63.8-606.1-19.2-820.8c134-663.5,606.1-1169.6,1280.2-1371.6c161.6-48.9,227.5-57.4,474.2-57.4c299.8-2.1,433.8,21.3,680.5,117c448.7,174.4,840,565.6,1016.5,1016.5c163.8,421.1,157.4,916.5-19.1,1341.8c-204.2,499.7-672,897.4-1220.6,1044.1C8065-1223.7,7697.2-1204.5,7518.5-1232.2z M7960.8-1710.6c91.4-38.3,110.6-125.5,117-567.8l8.5-421.1h406.2c472.1,0,527.4-14.9,597.6-157.4c36.1-76.5,38.3-91.4,10.6-170.1c-19.1-53.2-57.4-104.2-102.1-134c-70.2-46.8-89.3-48.9-493.3-48.9h-423.2v-380.6c0-444.4-8.5-495.5-87.2-574.2c-110.6-110.6-276.5-97.8-376.4,29.8c-44.7,55.3-46.8,80.8-46.8,491.2v433.8H7157c-463.6,0-538,14.9-593.3,125.5c-70.2,134-21.3,302,104.2,355.1c55.3,21.3,176.5,29.8,489.1,29.8h414.7v433.8v433.8l55.3,65.9C7709.9-1666,7809.9-1651.1,7960.8-1710.6z"/></g></g>
</svg>